# xmcd CD database file
#
# Track frame offsets:
#	150
#	17674
#	33704
#	47618
#	60035
#	76819
#	89228
#	99295
#	112742
#	123554
#	135134
#	145530
#	155859
#	166220
#	176305
#	201007
#	212642
#	223474
#
# Disc length: 3429 seconds
#
# Revision: 0
# Processed by: cddbd v1.4PL0 Copyright (c) Steve Scherf et al.
# Submitted via: CDex 1.40Release
#
DISCID=eb0d6312
DTITLE=John Lee Hooker - John Lee Hooker
DYEAR=1900
DGENRE=Blues
TTITLE0=Blues Before Sunrise
TTITLE1=My First Wife Left Me
TTITLE2=Time Is Marching
TTITLE3=Crawling King Snake
TTITLE4=Mama, You Got A Daughter
TTITLE5=I'm A Stranger
TTITLE6=Want Ed Blues
TTITLE7=Every Night
TTITLE8=Maudie
TTITLE9=Little Wheel
TTITLE10=Big Legs Tight Skirt
TTITLE11=I Wanna Walk
TTITLE12=Old Time Shimmy
TTITLE13=Run On
TTITLE14=Sugar Mama
TTITLE15=Hard Hearted Woman
TTITLE16=Send Me Your Pillow
TTITLE17=Tupelo
EXTD=ID3G: 0
EXTT0=
EXTT1=
EXTT2=
EXTT3=
EXTT4=
EXTT5=
EXTT6=
EXTT7=
EXTT8=
EXTT9=
EXTT10=
EXTT11=
EXTT12=
EXTT13=
EXTT14=
EXTT15=
EXTT16=
EXTT17=
PLAYORDER=
